<svg width="36" height="36" viewBox="0 0 36 36" fill="none" xmlns="http://www.w3.org/2000/svg">
<path fill-rule="evenodd" clip-rule="evenodd" d="M35 8.52917V27.2664C35 28.776 33.9117 30 32.565 30H3.43051C2.08828 30 1 28.776 1 27.2664V8.52917C1 6.60138 2.53721 5.0357 4.44171 5C4.45985 5 4.4795 5 4.50067 5H31.4993C31.5175 5 31.5371 5 31.5583 5C33.4583 5.0357 35 6.60138 35 8.52917ZM3.18111 7.99877L16.8301 16.2505C17.5511 16.6891 18.4444 16.684 19.1654 16.2505L32.8189 7.99877C32.8159 7.99197 32.8128 7.98688 32.8098 7.98348C32.8068 7.97328 32.8038 7.96308 32.8007 7.95288C32.7856 7.92228 32.7705 7.89337 32.7554 7.86617C32.7494 7.85597 32.7448 7.84578 32.7418 7.83558C32.7237 7.80158 32.704 7.76928 32.6828 7.73868C32.6798 7.73528 32.6768 7.73188 32.6738 7.72848C32.6496 7.69108 32.6239 7.65538 32.5967 7.62138C32.5937 7.61798 32.5891 7.61288 32.5831 7.60608C32.5619 7.57888 32.5393 7.55338 32.5151 7.52958C32.506 7.52278 32.4969 7.51428 32.4879 7.50408C32.4637 7.48028 32.4395 7.45818 32.4153 7.43778C32.4093 7.43098 32.4032 7.42588 32.3972 7.42248C32.3639 7.39528 32.3307 7.36978 32.2974 7.34598C32.2914 7.34258 32.2853 7.33918 32.2793 7.33578C32.249 7.31538 32.2188 7.29668 32.1886 7.27968C32.1795 7.27288 32.1689 7.26608 32.1569 7.25928C32.1296 7.24568 32.1009 7.23208 32.0707 7.21848C32.0616 7.21508 32.0526 7.20998 32.0435 7.20318C32.0042 7.18958 31.9634 7.17598 31.921 7.16238C31.918 7.15898 31.9135 7.15728 31.9075 7.15728C31.8712 7.14708 31.8349 7.13688 31.7986 7.12668C31.7865 7.12668 31.7744 7.12498 31.7623 7.12158C31.7291 7.11478 31.6973 7.10968 31.6671 7.10628C31.655 7.10628 31.6429 7.10458 31.6308 7.10118C31.5855 7.09778 31.5417 7.09608 31.4993 7.09608H4.50067C4.45532 7.09608 4.41148 7.09778 4.36916 7.10118C4.35706 7.10458 4.34347 7.10628 4.32835 7.10628C4.29812 7.10968 4.26789 7.11478 4.23766 7.12158C4.22557 7.12498 4.21197 7.12668 4.19685 7.12668C4.16058 7.13688 4.12429 7.14708 4.08802 7.15728C4.08499 7.15728 4.08046 7.15898 4.07441 7.16238C4.03511 7.17598 3.99582 7.18958 3.95652 7.20318C3.94745 7.20998 3.93838 7.21508 3.92931 7.21848C3.89908 7.23208 3.86885 7.24568 3.83862 7.25928C3.82955 7.26608 3.81897 7.27288 3.80688 7.27968C3.77665 7.29668 3.74793 7.31538 3.72073 7.33578C3.71468 7.33918 3.70863 7.34258 3.70258 7.34598C3.66631 7.36978 3.63305 7.39528 3.60282 7.42248C3.59678 7.42588 3.59074 7.43098 3.58469 7.43778C3.55748 7.45818 3.53178 7.48028 3.50759 7.50408C3.49852 7.51428 3.49097 7.52278 3.48492 7.52958C3.46074 7.55338 3.43806 7.57888 3.4169 7.60608C3.41086 7.61288 3.40482 7.61798 3.39877 7.62138C3.37156 7.65538 3.34587 7.69108 3.32168 7.72848C3.31866 7.73188 3.31564 7.73528 3.31262 7.73868C3.29448 7.76928 3.27633 7.80158 3.25819 7.83558C3.25215 7.84578 3.24611 7.85597 3.24006 7.86617C3.22495 7.89337 3.21135 7.92228 3.19925 7.95288C3.19623 7.96308 3.19169 7.97328 3.18565 7.98348C3.18262 7.98688 3.18111 7.99197 3.18111 7.99877ZM22.462 16.7044L30.3204 24.6297L32.9186 27.246V10.3805L22.462 16.7044ZM3.07681 27.5469L5.67511 24.9306L13.7194 16.8166L3.07681 10.3805V27.5469ZM30.5561 27.654L20.6255 17.8162L20.2355 18.0508C18.8389 18.8974 17.1611 18.8974 15.7599 18.0508L15.5604 17.9284L5.7386 27.654H30.5561Z" fill="black"/>
</svg>
