<svg width="26" height="26" viewBox="0 0 26 26" fill="none" xmlns="http://www.w3.org/2000/svg">
<path d="M14.1878 1.44434C15.4877 1.4478 16.1475 1.45474 16.7172 1.47091L16.9414 1.479C17.2002 1.48825 17.4556 1.4998 17.7641 1.51367C18.9935 1.57144 19.8324 1.76557 20.5685 2.05099C21.3311 2.34449 21.9736 2.74199 22.616 3.38331C23.2038 3.96077 23.6585 4.65956 23.9483 5.43091C24.2337 6.16698 24.4278 7.00589 24.4856 8.23653C24.4995 8.5439 24.511 8.79927 24.5203 9.05926L24.5272 9.28344C24.5445 9.85196 24.5515 10.5118 24.5538 11.8117L24.5549 12.6738V14.1875C24.5577 15.0303 24.5489 15.8732 24.5284 16.7158L24.5214 16.94C24.5122 17.2 24.5006 17.4553 24.4868 17.7627C24.429 18.9933 24.2326 19.8311 23.9483 20.5683C23.6585 21.3397 23.2038 22.0385 22.616 22.6159C22.0386 23.2037 21.3398 23.6584 20.5685 23.9482C19.8324 24.2337 18.9935 24.4278 17.7641 24.4856L16.9414 24.5202L16.7172 24.5272C16.1475 24.5433 15.4877 24.5514 14.1878 24.5537L13.3258 24.5549H11.8133C10.9701 24.5579 10.1268 24.549 9.28389 24.5283L9.05972 24.5214C8.78542 24.511 8.51117 24.499 8.23701 24.4856C7.00756 24.4278 6.16867 24.2337 5.43146 23.9482C4.66055 23.6583 3.96218 23.2036 3.38507 22.6159C2.79686 22.0386 2.34178 21.3398 2.05163 20.5683C1.76622 19.8322 1.5721 18.9933 1.51432 17.7627L1.47966 16.94L1.47388 16.7158C1.45258 15.8732 1.44295 15.0304 1.44499 14.1875V11.8117C1.44179 10.9689 1.45027 10.126 1.47041 9.28344L1.4785 9.05926C1.48775 8.79927 1.4993 8.5439 1.51317 8.23653C1.57094 7.00589 1.76507 6.16813 2.05047 5.43091C2.34131 4.65924 2.79718 3.96042 3.38623 3.38331C3.963 2.79578 4.66096 2.34111 5.43146 2.05099C6.16867 1.76557 7.0064 1.57144 8.23701 1.51367C8.54437 1.4998 8.80089 1.48825 9.05972 1.479L9.28389 1.47207C10.1265 1.45154 10.9693 1.44268 11.8121 1.44549L14.1878 1.44434ZM13 7.22197C11.4677 7.22197 9.99815 7.83069 8.91467 8.9142C7.83118 9.99772 7.22248 11.4673 7.22248 12.9996C7.22248 14.5319 7.83118 16.0015 8.91467 17.085C9.99815 18.1685 11.4677 18.7772 13 18.7772C14.5322 18.7772 16.0018 18.1685 17.0853 17.085C18.1688 16.0015 18.7775 14.5319 18.7775 12.9996C18.7775 11.4673 18.1688 9.99772 17.0853 8.9142C16.0018 7.83069 14.5322 7.22197 13 7.22197ZM13 9.53303C13.4552 9.53295 13.906 9.62254 14.3266 9.79669C14.7472 9.97083 15.1294 10.2261 15.4513 10.548C15.7733 10.8698 16.0287 11.2519 16.2029 11.6725C16.3772 12.093 16.467 12.5438 16.467 12.999C16.4671 13.4543 16.3775 13.9051 16.2034 14.3257C16.0292 14.7463 15.774 15.1285 15.4521 15.4504C15.1303 15.7724 14.7482 16.0278 14.3276 16.2021C13.9071 16.3764 13.4563 16.4661 13.0011 16.4662C12.0817 16.4662 11.2 16.101 10.5499 15.4509C9.89985 14.8007 9.53463 13.919 9.53463 12.9996C9.53463 12.0802 9.89985 11.1985 10.5499 10.5484C11.2 9.89826 12.0817 9.53303 13.0011 9.53303M19.0675 5.48868C18.6844 5.48868 18.317 5.64086 18.0462 5.91174C17.7753 6.18262 17.6231 6.55001 17.6231 6.93309C17.6231 7.31617 17.7753 7.68356 18.0462 7.95444C18.317 8.22532 18.6844 8.3775 19.0675 8.3775C19.4506 8.3775 19.8179 8.22532 20.0888 7.95444C20.3597 7.68356 20.5119 7.31617 20.5119 6.93309C20.5119 6.55001 20.3597 6.18262 20.0888 5.91174C19.8179 5.64086 19.4506 5.48868 19.0675 5.48868Z" fill="white"/>
</svg>
