<svg width="26" height="26" viewBox="0 0 26 26" fill="none" xmlns="http://www.w3.org/2000/svg">
<path d="M7.51839 5.41677C7.51811 5.99141 7.28956 6.5424 6.88302 6.94852C6.47649 7.35465 5.92528 7.58264 5.35064 7.58236C4.77601 7.58207 4.22502 7.35352 3.81889 6.94699C3.41277 6.54046 3.18477 5.98924 3.18506 5.41461C3.18535 4.83997 3.41389 4.28899 3.82043 3.88286C4.22696 3.47673 4.77817 3.24874 5.35281 3.24902C5.92744 3.24931 6.47843 3.47786 6.88456 3.88439C7.29068 4.29092 7.51868 4.84214 7.51839 5.41677ZM7.58339 9.18677H3.25006V22.7501H7.58339V9.18677ZM14.4301 9.18677H10.1184V22.7501H14.3867V15.6326C14.3867 11.6676 19.5542 11.2993 19.5542 15.6326V22.7501H23.8334V14.1593C23.8334 7.47511 16.1851 7.72427 14.3867 11.0068L14.4301 9.18677Z" fill="white"/>
</svg>
