<svg width="80" height="81" viewBox="0 0 80 81" fill="none" xmlns="http://www.w3.org/2000/svg">
<path d="M36.4408 6.13502C36.4408 5.57236 36.5637 5.06979 36.8095 4.62731C37.0554 4.17937 37.3913 3.83249 37.8174 3.58667C38.2435 3.33539 38.7187 3.20974 39.2432 3.20974C39.8823 3.20974 40.4286 3.3627 40.882 3.66861C41.3408 3.96906 41.6741 4.39515 41.8816 4.94688H41.2097C41.0458 4.55903 40.7946 4.25585 40.4559 4.03734C40.1227 3.81883 39.7184 3.70958 39.2432 3.70958C38.8225 3.70958 38.4429 3.80791 38.1042 4.00457C37.771 4.20122 37.5088 4.48528 37.3176 4.85675C37.1264 5.22275 37.0308 5.64884 37.0308 6.13502C37.0308 6.6212 37.1264 7.04729 37.3176 7.41329C37.5088 7.77929 37.771 8.06062 38.1042 8.25727C38.4429 8.45393 38.8225 8.55226 39.2432 8.55226C39.7184 8.55226 40.1227 8.44573 40.4559 8.23269C40.7946 8.01418 41.0458 7.71373 41.2097 7.33135H41.8816C41.6741 7.87761 41.3408 8.30097 40.882 8.60142C40.4231 8.90187 39.8768 9.05209 39.2432 9.05209C38.7187 9.05209 38.2435 8.92918 37.8174 8.68336C37.3913 8.43208 37.0554 8.0852 36.8095 7.64272C36.5637 7.20024 36.4408 6.69767 36.4408 6.13502Z" fill="white"/>
<path d="M45.356 9.46646C44.8334 9.3791 44.3794 9.17861 43.9942 8.86499C43.6098 8.54598 43.3301 8.14753 43.155 7.66964C42.9861 7.18726 42.9479 6.66857 43.0404 6.11356C43.1328 5.55855 43.3367 5.08308 43.6518 4.68714C43.9733 4.28672 44.367 4.00084 44.8331 3.82951C45.3 3.65278 45.7948 3.6081 46.3174 3.69545C46.8455 3.78371 47.3017 3.98734 47.686 4.30636C48.0713 4.61998 48.3483 5.01798 48.5172 5.50036C48.6869 5.97735 48.7255 6.49335 48.6331 7.04835C48.5406 7.60336 48.3363 8.08153 48.0203 8.48285C47.7051 8.87879 47.314 9.16512 46.8471 9.34184C46.3811 9.51318 45.884 9.55472 45.356 9.46646ZM45.4381 8.97342C45.8584 9.04366 46.2517 9.00971 46.6181 8.87156C46.9845 8.73342 47.2947 8.50004 47.5488 8.17144C47.8038 7.83744 47.9713 7.43066 48.0512 6.95109C48.1311 6.47152 48.1041 6.03501 47.9703 5.64157C47.8365 5.24812 47.6187 4.92649 47.317 4.67667C47.0152 4.42685 46.6542 4.26682 46.234 4.19658C45.8137 4.12633 45.4204 4.16029 45.054 4.29843C44.6876 4.43658 44.3774 4.66996 44.1233 4.99856C43.8692 5.32717 43.7022 5.73125 43.6223 6.21082C43.5424 6.69039 43.5689 7.12959 43.7018 7.52843C43.8356 7.92187 44.0534 8.24351 44.3552 8.49332C44.6569 8.74314 45.0179 8.90317 45.4381 8.97342Z" fill="white"/>
<path d="M52.4515 11.3846L51.9091 11.1981L50.4725 5.6091L48.9104 10.1669L48.368 9.98042L50.225 4.56218L50.7674 4.74869L52.2067 10.3299L53.7661 5.77983L54.3085 5.96634L52.4515 11.3846Z" fill="white"/>
<path d="M59.3051 8.51116L59.0792 8.92929L57.6816 8.17175L55.185 12.7928L54.6807 12.5195L57.1774 7.89841L55.7726 7.13697L55.9985 6.71884L59.3051 8.51116Z" fill="white"/>
<path d="M61.1068 15.1762L59.0518 13.5742L57.823 14.3409L57.3448 13.9681L62.4617 10.7883L62.9723 11.1863L61.1446 16.9304L60.6664 16.5576L61.1068 15.1762ZM61.2627 14.6952L62.2713 11.5542L59.4791 13.3047L61.2627 14.6952Z" fill="white"/>
<path d="M63.2365 15.8971C63.6502 15.5157 64.1028 15.2655 64.5944 15.1465C65.0901 15.0239 65.5724 15.0361 66.0415 15.1832C66.5146 15.3266 66.9285 15.5913 67.2834 15.9774C67.7159 16.448 67.9731 16.9539 68.055 17.4951C68.1446 18.0366 68.0568 18.5708 67.7917 19.0977L67.337 18.6029C67.5113 18.2194 67.5641 17.8288 67.4956 17.4313C67.4307 17.0379 67.2375 16.6662 66.9159 16.3163C66.6313 16.0066 66.3021 15.7937 65.9283 15.6776C65.5583 15.5656 65.172 15.5651 64.7695 15.6761C64.3711 15.7834 63.9931 16.0019 63.6357 16.3315C63.2783 16.661 63.0297 17.0203 62.89 17.4091C62.7503 17.798 62.7209 18.1818 62.8018 18.5604C62.8865 18.9431 63.0711 19.2893 63.3557 19.599C63.6773 19.9489 64.0291 20.1743 64.4112 20.2753C64.8011 20.3765 65.192 20.3579 65.584 20.2193L66.0387 20.714C65.4966 20.9315 64.9599 20.9731 64.4285 20.8389C63.8971 20.7048 63.417 20.4044 62.9882 19.9378C62.6334 19.5517 62.4021 19.1185 62.2945 18.6381C62.1909 18.154 62.2186 17.6715 62.3776 17.1906C62.5365 16.7097 62.8229 16.2785 63.2365 15.8971Z" fill="white"/>
<path d="M71.9684 22.3281L71.5707 22.5884L70.7023 21.2569L66.3073 24.1329L65.994 23.6525L70.3889 20.7765L69.516 19.4382L69.9137 19.1779L71.9684 22.3281Z" fill="white"/>
<path d="M74.4873 29.4001L70.9926 30.2865C70.4419 30.4262 70.067 30.6594 69.8679 30.986C69.6701 31.318 69.6288 31.7117 69.7439 32.1672C69.8591 32.6226 70.0785 32.9445 70.4022 33.1329C70.7326 33.3253 71.1758 33.351 71.7317 33.2099L75.2264 32.3235L75.367 32.8796L71.8803 33.764C71.176 33.9426 70.599 33.8889 70.1492 33.6029C69.7007 33.3222 69.4008 32.8826 69.2495 32.2841C69.0982 31.6857 69.1524 31.1534 69.4121 30.6874C69.6731 30.2267 70.1557 29.907 70.86 29.7284L74.3467 28.844L74.4873 29.4001Z" fill="white"/>
<path d="M70.0994 37.2518C70.0683 36.8762 70.1062 36.5387 70.213 36.2393C70.3202 35.9454 70.4841 35.707 70.7047 35.5243C70.9253 35.3415 71.1794 35.2327 71.467 35.1979L71.517 35.8022C71.2416 35.8524 71.0068 35.9953 70.8125 36.2307C70.6236 36.4656 70.5465 36.7927 70.5812 37.2118C70.6132 37.5984 70.7364 37.8951 70.9508 38.1021C71.1712 38.314 71.4338 38.4073 71.7386 38.382C71.9836 38.3617 72.1744 38.2828 72.311 38.1454C72.4531 38.0075 72.5519 37.8431 72.6073 37.6521C72.6683 37.4607 72.7287 37.1981 72.7888 36.8642C72.8607 36.4745 72.9365 36.164 73.016 35.9327C73.0955 35.7013 73.2322 35.4981 73.426 35.3231C73.6198 35.148 73.8936 35.0458 74.2475 35.0164C74.5415 34.992 74.8091 35.0466 75.0503 35.18C75.297 35.313 75.4972 35.5129 75.6508 35.7798C75.8044 36.0466 75.8961 36.3596 75.9258 36.7189C75.9695 37.247 75.874 37.6825 75.6393 38.0254C75.4104 38.3733 75.0939 38.5886 74.6896 38.6715L74.6383 38.0509C74.8692 37.9934 75.0655 37.8483 75.2272 37.6156C75.3942 37.3825 75.4625 37.0808 75.4318 36.7106C75.4035 36.3676 75.2873 36.0895 75.0833 35.8762C74.8847 35.6624 74.6275 35.5687 74.3118 35.5949C74.0723 35.6148 73.8842 35.6934 73.7475 35.8308C73.6109 35.9682 73.5121 36.1327 73.4512 36.3241C73.3908 36.521 73.3303 36.7836 73.2698 37.112C73.197 37.4908 73.1183 37.7988 73.0338 38.0361C72.9547 38.2729 72.8182 38.4788 72.6244 38.6538C72.4306 38.8289 72.1595 38.9308 71.8111 38.9598C71.5443 38.9819 71.2853 38.9321 71.0341 38.8105C70.7829 38.6888 70.5723 38.4953 70.4023 38.2298C70.2323 37.9644 70.1314 37.6384 70.0994 37.2518Z" fill="white"/>
<path d="M71.6754 48.1664C71.7048 48.0498 71.7693 47.9619 71.8688 47.9026C71.967 47.8486 72.0743 47.8364 72.1908 47.866C72.3073 47.8955 72.3933 47.9568 72.4486 48.0497C72.508 48.1493 72.5229 48.2574 72.4935 48.3739C72.4653 48.4851 72.4022 48.5677 72.304 48.6217C72.2098 48.6823 72.1045 48.6979 71.988 48.6683C71.8715 48.6388 71.7836 48.5742 71.7242 48.4746C71.6635 48.3803 71.6473 48.2776 71.6754 48.1664Z" fill="white"/>
<path d="M70.2517 56.0156C70.7225 56.3237 71.0759 56.7019 71.3118 57.15C71.5524 57.6012 71.6591 58.0725 71.632 58.564C71.6095 59.0585 71.455 59.5254 71.1685 59.9646C70.8193 60.5 70.3929 60.8737 69.8892 61.086C69.3871 61.3058 68.8485 61.3516 68.2735 61.2234L68.6406 60.6606C69.0546 60.7357 69.4456 60.6912 69.8135 60.5272C70.1783 60.3677 70.4906 60.089 70.7502 59.6909C70.98 59.3386 71.1052 58.9668 71.1256 58.5754C71.1431 58.1886 71.0487 57.8135 70.8423 57.4499C70.6405 57.0894 70.3362 56.776 69.9294 56.5098C69.5226 56.2436 69.1138 56.0903 68.7031 56.05C68.2924 56.0098 67.9137 56.0753 67.5672 56.2468C67.2176 56.4228 66.9279 56.6869 66.6981 57.0392C66.4384 57.4373 66.3067 57.8342 66.303 58.23C66.3008 58.6333 66.4149 59.0083 66.6453 59.3549L66.2783 59.9177C65.9346 59.4447 65.7624 58.9338 65.7616 58.3849C65.7609 57.8361 65.9337 57.2963 66.2798 56.7655C66.5663 56.3263 66.9288 55.9955 67.3673 55.7732C67.8103 55.5539 68.2841 55.4625 68.7887 55.4989C69.2932 55.5353 69.7809 55.7075 70.2517 56.0156Z" fill="white"/>
<path d="M62.141 61.8281C62.4996 61.438 62.9152 61.1673 63.388 61.0162C63.8647 60.8688 64.3508 60.8526 64.8461 60.9675C65.3418 61.0902 65.7964 61.3422 66.2101 61.7236C66.6237 62.105 66.91 62.5362 67.069 63.0171C67.2283 63.5058 67.2523 63.9923 67.141 64.4767C67.0337 64.9648 66.8007 65.4039 66.4422 65.794C66.0799 66.1882 65.6604 66.459 65.1837 66.6064C64.7109 66.7575 64.2267 66.7717 63.7311 66.6491C63.2394 66.5301 62.7868 66.2799 62.3731 65.8985C61.9595 65.5171 61.6712 65.0841 61.5082 64.5994C61.3492 64.1185 61.3234 63.634 61.4307 63.1459C61.542 62.6615 61.7788 62.2223 62.141 61.8281ZM62.5085 62.1669C62.2202 62.4806 62.0337 62.8288 61.9491 63.2115C61.8645 63.5942 61.8902 63.982 62.0262 64.3749C62.1662 64.7715 62.4149 65.1346 62.7724 65.4641C63.1298 65.7937 63.5096 66.0102 63.9117 66.1135C64.3139 66.2168 64.7018 66.2104 65.0756 66.0943C65.4493 65.9783 65.7804 65.7634 66.0687 65.4497C66.357 65.1359 66.5435 64.7877 66.6281 64.4051C66.7127 64.0224 66.687 63.6346 66.551 63.2417C66.415 62.8488 66.1683 62.4876 65.8109 62.158C65.4534 61.8284 65.0716 61.6101 64.6655 61.5031C64.2633 61.3998 63.8754 61.4062 63.5016 61.5223C63.1278 61.6383 62.7968 61.8532 62.5085 62.1669Z" fill="white"/>
<path d="M55.6548 66.733L56.1072 66.3804L61.5643 68.2352L58.6081 64.4307L59.0604 64.078L62.5748 68.6008L62.1224 68.9534L56.6703 67.1051L59.6215 70.9031L59.1691 71.2558L55.6548 66.733Z" fill="white"/>
<path d="M54.3105 74.0558L54.0846 73.6377L55.4822 72.8801L52.9855 68.2591L53.4898 67.9857L55.9864 72.6068L57.3912 71.8454L57.6171 72.2635L54.3105 74.0558Z" fill="white"/>
<path d="M48.7571 71.925L51.2212 71.0777L51.2529 69.6285L51.8263 69.4313L51.6834 75.4592L51.0713 75.6697L47.27 70.998L47.8434 70.8008L48.7571 71.925ZM49.0739 72.3186L51.1474 74.881L51.2126 71.5833L49.0739 72.3186Z" fill="white"/>
<path d="M46.8251 73.8633C46.9175 74.4183 46.8789 74.9343 46.7091 75.4113C46.5403 75.8937 46.2659 76.2912 45.8861 76.6039C45.5071 76.922 45.059 77.1243 44.5418 77.2108C43.9114 77.3162 43.3474 77.2553 42.85 77.0283C42.348 76.8076 41.9493 76.4423 41.6539 75.9322L42.3166 75.8215C42.542 76.177 42.8397 76.4347 43.2096 76.5944C43.5742 76.755 43.9909 76.7961 44.4596 76.7177C44.8745 76.6484 45.2328 76.4888 45.5345 76.239C45.8309 75.9901 46.0428 75.6667 46.1704 75.2687C46.2988 74.8762 46.3231 74.4401 46.2432 73.9606C46.1633 73.481 45.999 73.0764 45.7502 72.7469C45.5015 72.4174 45.1967 72.1832 44.8357 72.0441C44.4693 71.906 44.0787 71.8716 43.6638 71.9409C43.1951 72.0193 42.8139 72.191 42.5202 72.4561C42.2221 72.7274 42.0236 73.0652 41.9248 73.4694L41.2621 73.5802C41.377 73.0071 41.6361 72.5346 42.0393 72.1626C42.4426 71.7906 42.9567 71.5523 43.5817 71.4479C44.0989 71.3614 44.5879 71.4043 45.0485 71.5765C45.5101 71.7542 45.8984 72.0409 46.2136 72.4369C46.5288 72.8328 46.7326 73.3083 46.8251 73.8633Z" fill="white"/>
<path d="M36.6689 76.6681V76.1928H38.2585V70.9404H38.8321V76.1928H40.43V76.6681H36.6689Z" fill="white"/>
<path d="M29.0008 75.2027L30.1697 71.792C30.3539 71.2546 30.3637 70.8132 30.1991 70.4678C30.0294 70.1206 29.7224 69.8706 29.2781 69.7178C28.8339 69.5651 28.4444 69.5727 28.1096 69.7406C27.7679 69.912 27.5041 70.2689 27.3181 70.8115L26.1492 74.2221L25.6068 74.0356L26.7731 70.6328C27.0086 69.9455 27.3691 69.4918 27.8546 69.2717C28.3348 69.0498 28.8668 69.0392 29.4506 69.2399C30.0343 69.4406 30.4502 69.7772 30.6984 70.2495C30.9413 70.7201 30.945 71.299 30.7094 71.9863L29.5432 75.3892L29.0008 75.2027Z" fill="white"/>
<path d="M24.8314 67.2334C25.1628 67.413 25.4246 67.6295 25.6168 67.8828C25.8042 68.1335 25.9142 68.4012 25.9466 68.686C25.979 68.9708 25.9312 69.2431 25.8032 69.503L25.2701 69.2141C25.3785 68.9559 25.3873 68.6811 25.2965 68.3895C25.203 68.1028 24.9714 67.8592 24.6016 67.6587C24.2607 67.4739 23.945 67.4146 23.6546 67.4809C23.3568 67.5494 23.1352 67.7182 22.9898 67.9874C22.873 68.2036 22.8347 68.4066 22.8751 68.5962C22.9128 68.7907 22.9965 68.9634 23.126 69.1144C23.2529 69.2702 23.4397 69.4646 23.6863 69.6977C23.9731 69.9712 24.1916 70.2046 24.3418 70.3979C24.492 70.5911 24.5873 70.8168 24.6279 71.0749C24.6685 71.3331 24.6045 71.6183 24.4357 71.9307C24.2955 72.1902 24.1036 72.3845 23.8601 72.5135C23.6139 72.6472 23.3372 72.7054 23.03 72.688C22.7228 72.6706 22.4106 72.576 22.0937 72.4041C21.6278 72.1516 21.3156 71.8332 21.1568 71.4489C20.9907 71.0669 20.9834 70.6839 21.135 70.3L21.6825 70.5968C21.6044 70.8217 21.6186 71.0655 21.725 71.3282C21.8288 71.5957 22.044 71.818 22.3706 71.995C22.6732 72.159 22.9694 72.214 23.2594 72.1599C23.5468 72.1107 23.7658 71.9466 23.9164 71.6679C24.0307 71.4564 24.0676 71.2559 24.0273 71.0662C23.9869 70.8766 23.9033 70.7039 23.7764 70.5481C23.6446 70.3897 23.4578 70.1952 23.216 69.9647C22.9388 69.6964 22.724 69.4619 22.5716 69.2613C22.4167 69.0654 22.3189 68.8384 22.2783 68.5803C22.2377 68.3222 22.3005 68.0393 22.4667 67.7317C22.5939 67.4962 22.7771 67.3066 23.0162 67.1628C23.2553 67.019 23.5324 66.9486 23.8474 66.9516C24.1625 66.9546 24.4905 67.0486 24.8314 67.2334Z" fill="white"/>
<path d="M14.8542 62.578C14.9355 62.6665 14.9738 62.7687 14.969 62.8846C14.9605 62.9964 14.9121 63.0931 14.8237 63.1745C14.7353 63.256 14.6372 63.2945 14.5292 63.29C14.4135 63.2852 14.315 63.2386 14.2337 63.1501C14.1561 63.0657 14.1215 62.9675 14.13 62.8556C14.1308 62.7435 14.1753 62.6467 14.2637 62.5652C14.352 62.4837 14.4541 62.4454 14.5697 62.4502C14.6817 62.4509 14.7765 62.4935 14.8542 62.578Z" fill="white"/>
<path d="M11.6243 58.2503C11.1092 58.4766 10.5998 58.5662 10.0961 58.519C9.58734 58.474 9.135 58.3058 8.73902 58.0143C8.33804 57.7251 8.03237 57.3403 7.822 56.8599C7.56562 56.2745 7.48652 55.7126 7.58472 55.1742C7.67572 54.633 7.93215 54.1564 8.35401 53.7443L8.62354 54.3598C8.33419 54.6659 8.15742 55.018 8.09323 55.4162C8.02684 55.8093 8.08897 56.2235 8.27962 56.6589C8.44835 57.0442 8.69067 57.3524 9.00657 57.5835C9.32029 57.8097 9.68554 57.9356 10.1023 57.9613C10.5141 57.9892 10.9425 57.9054 11.3877 57.7099C11.8328 57.5143 12.1845 57.2553 12.4429 56.933C12.7013 56.6106 12.8537 56.2573 12.9001 55.8729C12.9443 55.4836 12.882 55.0962 12.7132 54.7109C12.5226 54.2756 12.2629 53.9482 11.9342 53.7286C11.5983 53.5063 11.2224 53.3969 10.8066 53.4006L10.5371 52.7852C11.1205 52.7556 11.6417 52.8905 12.1009 53.19C12.56 53.4895 12.9167 53.9294 13.1709 54.5099C13.3812 54.9903 13.4593 55.475 13.4052 55.9642C13.3461 56.4556 13.1633 56.9029 12.8568 57.306C12.5503 57.7092 12.1395 58.0239 11.6243 58.2503Z" fill="white"/>
<path d="M10.4955 48.6553C10.6253 49.1691 10.624 49.6653 10.4915 50.1442C10.3537 50.6243 10.1012 51.0406 9.73388 51.393C9.35995 51.7415 8.90028 51.9849 8.3549 52.1232C7.80951 52.2616 7.29224 52.266 6.80309 52.1364C6.30731 52.0029 5.88739 51.7572 5.54334 51.3993C5.19399 51.0427 4.95438 50.6075 4.8245 50.0938C4.69328 49.5748 4.69657 49.0752 4.83436 48.595C4.96686 48.1162 5.22008 47.7025 5.59402 47.3541C5.96266 47.007 6.41968 46.7643 6.96506 46.6259C7.51045 46.4876 8.03036 46.4825 8.52481 46.6107C9.01396 46.7402 9.4332 46.9833 9.78255 47.3399C10.1266 47.6979 10.3642 48.1363 10.4955 48.6553ZM10.011 48.7782C9.90653 48.3651 9.71749 48.0186 9.44385 47.7386C9.17022 47.4586 8.83192 47.2683 8.42895 47.1676C8.02068 47.0683 7.58092 47.0784 7.10967 47.1979C6.63841 47.3174 6.2495 47.5175 5.94294 47.7982C5.63638 48.0788 5.42929 48.4075 5.32169 48.7842C5.21408 49.1609 5.2125 49.5558 5.31694 49.9689C5.42138 50.382 5.61041 50.7285 5.88405 51.0085C6.15768 51.2885 6.49599 51.4789 6.89895 51.5795C7.30192 51.6802 7.73903 51.6708 8.21029 51.5513C8.68155 51.4317 9.0731 51.231 9.38496 50.949C9.69152 50.6683 9.89861 50.3396 10.0062 49.9629C10.1138 49.5862 10.1154 49.1913 10.011 48.7782Z" fill="white"/>
<path d="M9.40053 40.3806L9.44787 40.9522L4.90796 44.5106L9.70958 44.1125L9.75692 44.6841L4.04887 45.1574L4.00153 44.5858L8.53328 41.0281L3.73982 41.4255L3.69248 40.8539L9.40053 40.3806Z" fill="white"/>
<path d="M4.00751 35.2467L4.48114 35.286L4.35008 36.8702L9.58446 37.3046L9.53717 37.8763L4.30279 37.4418L4.17106 39.0342L3.69744 38.9949L4.00751 35.2467Z" fill="white"/>
<path d="M8.37937 30.9176L7.74069 33.4438L8.93663 34.2628L8.78801 34.8507L3.81982 31.4348L3.97849 30.8072L9.96896 30.1795L9.82034 30.7674L8.37937 30.9176ZM7.87653 30.9675L4.59709 31.3023L7.3222 33.1601L7.87653 30.9675Z" fill="white"/>
<path d="M7.26604 28.0731C6.75091 27.8468 6.3401 27.532 6.0336 27.1289C5.7221 26.7235 5.53929 26.2762 5.48515 25.7871C5.42602 25.2957 5.50163 24.8098 5.71199 24.3294C5.96838 23.744 6.32754 23.3051 6.78949 23.0128C7.24863 22.7133 7.7724 22.5795 8.3608 22.6113L8.09127 23.2268C7.67044 23.2209 7.29207 23.3291 6.95616 23.5514C6.62244 23.7688 6.36025 24.0951 6.16961 24.5305C6.00088 24.9158 5.93861 25.3031 5.98279 25.6925C6.02917 26.0768 6.18405 26.4312 6.44745 26.7558C6.70584 27.0782 7.05759 27.3371 7.5027 27.5327C7.94781 27.7282 8.37626 27.8121 8.78804 27.7842C9.19982 27.7562 9.56257 27.6292 9.87629 27.4031C10.1922 27.1719 10.4345 26.8637 10.6032 26.4784C10.7939 26.0431 10.8585 25.6299 10.7971 25.239C10.7329 24.8409 10.5587 24.4898 10.2743 24.1859L10.5439 23.5704C10.9607 23.9803 11.2146 24.4558 11.3056 24.997C11.3966 25.5382 11.315 26.099 11.0609 26.6795C10.8505 27.1598 10.5473 27.5457 10.1513 27.8372C9.75036 28.1264 9.29802 28.2946 8.7943 28.3418C8.29059 28.389 7.78117 28.2994 7.26604 28.0731Z" fill="white"/>
<path d="M9.63423 17.4768L10.0319 17.737L9.16346 19.0685L13.5584 21.9445L13.2451 22.4249L8.85011 19.5489L7.97718 20.8872L7.57951 20.627L9.63423 17.4768Z" fill="white"/>
<path d="M15.6031 12.0055L17.8152 14.8524C18.1638 15.3011 18.5275 15.5509 18.9062 15.602C19.2892 15.6498 19.6659 15.5292 20.0364 15.2404C20.4069 14.9515 20.6134 14.6208 20.656 14.2482C20.6995 13.868 20.5453 13.4514 20.1934 12.9985L17.9812 10.1516L18.4336 9.7989L20.6407 12.6394C21.0865 13.2131 21.2687 13.7636 21.1874 14.2911C21.1104 14.8152 20.8285 15.267 20.3417 15.6466C19.8548 16.0261 19.3462 16.1906 18.8157 16.14C18.2896 16.0861 17.8036 15.7723 17.3578 15.1986L15.1507 12.3582L15.6031 12.0055Z" fill="white"/>
<path d="M24.5424 12.8675C24.211 13.0472 23.8869 13.1483 23.57 13.1709C23.258 13.1909 22.9741 13.1367 22.7183 13.0081C22.4626 12.8795 22.2611 12.6905 22.1139 12.441L22.647 12.152C22.8034 12.3841 23.0283 12.5418 23.3217 12.6251C23.6125 12.7036 23.9428 12.6427 24.3126 12.4422C24.6535 12.2574 24.8757 12.0251 24.9792 11.7453C25.0848 11.4582 25.0649 11.18 24.9195 10.9109C24.8026 10.6946 24.6539 10.5515 24.4734 10.4816C24.2902 10.4069 24.1001 10.3826 23.9031 10.4086C23.7034 10.4299 23.4388 10.4801 23.1091 10.5594C22.7235 10.6503 22.409 10.7059 22.1653 10.7261C21.9217 10.7463 21.6809 10.7029 21.4429 10.5957C21.205 10.4886 21.0016 10.2788 20.8329 9.96644C20.6926 9.70691 20.6352 9.43977 20.6606 9.16502C20.6835 8.88547 20.7862 8.62164 20.9688 8.37353C21.1514 8.12542 21.4012 7.91546 21.7182 7.74365C22.184 7.49113 22.6209 7.40343 23.0289 7.48053C23.4391 7.55022 23.7632 7.75359 24.0011 8.09061L23.4537 8.38738C23.3084 8.19894 23.0969 8.07748 22.8191 8.02301C22.5387 7.96373 22.2352 8.0226 21.9086 8.19962C21.6061 8.36363 21.3981 8.582 21.2847 8.85474C21.1686 9.12268 21.1859 9.39602 21.3365 9.67478C21.4508 9.88624 21.5982 10.0269 21.7788 10.0968C21.9593 10.1667 22.1494 10.191 22.3491 10.1698C22.5535 10.146 22.8182 10.0957 23.1431 10.019C23.519 9.93333 23.8325 9.88147 24.0835 9.86345C24.3319 9.84062 24.5751 9.88278 24.8131 9.98992C25.051 10.0971 25.2531 10.3044 25.4193 10.612C25.5465 10.8475 25.6048 11.1048 25.5942 11.384C25.5836 11.6631 25.4909 11.934 25.3161 12.1965C25.1412 12.459 24.8833 12.6827 24.5424 12.8675Z" fill="white"/>
<path d="M31.8883 7.04109C31.7698 7.0609 31.6634 7.03715 31.5691 6.96983C31.4802 6.90161 31.4259 6.80823 31.4061 6.68969C31.3864 6.57114 31.408 6.46784 31.4708 6.3798C31.5382 6.28546 31.6311 6.22839 31.7496 6.20858C31.8628 6.18967 31.9638 6.21432 32.0527 6.28254C32.1461 6.34447 32.2027 6.4347 32.2224 6.55325C32.2422 6.67179 32.2184 6.77823 32.151 6.87257C32.089 6.966 32.0015 7.02218 31.8883 7.04109Z" fill="white"/>
</svg>
